<mxfile host="app.diagrams.net" agent="Mozilla/5.0 (X11; Linux x86_64; rv:141.0) Gecko/20100101 Firefox/141.0" version="28.0.9">
  <diagram name="Page-1" id="Mw-keKYlOnwaFqAtt0Ky">
    <mxGraphModel dx="1362" dy="751" grid="1" gridSize="10" guides="1" tooltips="1" connect="1" arrows="1" fold="1" page="1" pageScale="1" pageWidth="850" pageHeight="1100" math="0" shadow="0">
      <root>
        <mxCell id="0" />
        <mxCell id="1" parent="0" />
        <mxCell id="A3I4oWgsdDmlfEpYmycM-127" style="edgeStyle=orthogonalEdgeStyle;rounded=0;orthogonalLoop=1;jettySize=auto;html=1;exitX=1;exitY=0.5;exitDx=0;exitDy=0;entryX=0;entryY=0.5;entryDx=0;entryDy=0;shape=link;" parent="1" source="A3I4oWgsdDmlfEpYmycM-33" target="A3I4oWgsdDmlfEpYmycM-67" edge="1">
          <mxGeometry relative="1" as="geometry" />
        </mxCell>
        <mxCell id="A3I4oWgsdDmlfEpYmycM-33" value="&lt;div&gt;Neuron Manager&lt;/div&gt;" style="whiteSpace=wrap;html=1;aspect=fixed;align=center;labelPosition=center;verticalLabelPosition=middle;verticalAlign=middle;" parent="1" vertex="1">
          <mxGeometry x="60" y="260" width="220" height="220" as="geometry" />
        </mxCell>
        <mxCell id="A3I4oWgsdDmlfEpYmycM-34" value="" style="whiteSpace=wrap;html=1;aspect=fixed;" parent="1" vertex="1">
          <mxGeometry x="80" y="280" width="80" height="80" as="geometry" />
        </mxCell>
        <mxCell id="A3I4oWgsdDmlfEpYmycM-35" value="" style="whiteSpace=wrap;html=1;aspect=fixed;" parent="1" vertex="1">
          <mxGeometry x="180" y="280" width="80" height="80" as="geometry" />
        </mxCell>
        <mxCell id="A3I4oWgsdDmlfEpYmycM-36" value="" style="whiteSpace=wrap;html=1;aspect=fixed;" parent="1" vertex="1">
          <mxGeometry x="80" y="380" width="80" height="80" as="geometry" />
        </mxCell>
        <mxCell id="A3I4oWgsdDmlfEpYmycM-37" style="edgeStyle=orthogonalEdgeStyle;rounded=0;orthogonalLoop=1;jettySize=auto;html=1;exitX=0.5;exitY=1;exitDx=0;exitDy=0;endArrow=none;endFill=0;" parent="1" source="A3I4oWgsdDmlfEpYmycM-38" edge="1">
          <mxGeometry relative="1" as="geometry">
            <mxPoint x="219.8888888888889" y="500" as="targetPoint" />
          </mxGeometry>
        </mxCell>
        <mxCell id="A3I4oWgsdDmlfEpYmycM-38" value="&lt;font style=&quot;font-size: 10px;&quot;&gt;LIF Neuron&lt;/font&gt;" style="whiteSpace=wrap;html=1;aspect=fixed;fillColor=#eeeeee;strokeColor=#36393d;" parent="1" vertex="1">
          <mxGeometry x="180" y="380" width="80" height="80" as="geometry" />
        </mxCell>
        <mxCell id="A3I4oWgsdDmlfEpYmycM-39" style="edgeStyle=orthogonalEdgeStyle;rounded=0;orthogonalLoop=1;jettySize=auto;html=1;exitX=1;exitY=0.5;exitDx=0;exitDy=0;entryX=0;entryY=0.5;entryDx=0;entryDy=0;endArrow=none;endFill=0;" parent="1" source="A3I4oWgsdDmlfEpYmycM-41" target="A3I4oWgsdDmlfEpYmycM-44" edge="1">
          <mxGeometry relative="1" as="geometry" />
        </mxCell>
        <mxCell id="A3I4oWgsdDmlfEpYmycM-40" style="edgeStyle=orthogonalEdgeStyle;rounded=0;orthogonalLoop=1;jettySize=auto;html=1;exitX=0.5;exitY=1;exitDx=0;exitDy=0;entryX=0.5;entryY=0;entryDx=0;entryDy=0;endArrow=none;endFill=0;" parent="1" source="A3I4oWgsdDmlfEpYmycM-41" target="A3I4oWgsdDmlfEpYmycM-46" edge="1">
          <mxGeometry relative="1" as="geometry" />
        </mxCell>
        <mxCell id="A3I4oWgsdDmlfEpYmycM-41" value="&lt;font style=&quot;font-size: 10px;&quot;&gt;LIF Neuron&lt;/font&gt;" style="whiteSpace=wrap;html=1;aspect=fixed;fillColor=#eeeeee;strokeColor=#36393d;" parent="1" vertex="1">
          <mxGeometry x="80" y="280" width="80" height="80" as="geometry" />
        </mxCell>
        <mxCell id="A3I4oWgsdDmlfEpYmycM-42" style="edgeStyle=orthogonalEdgeStyle;rounded=0;orthogonalLoop=1;jettySize=auto;html=1;exitX=0.5;exitY=1;exitDx=0;exitDy=0;entryX=0.5;entryY=0;entryDx=0;entryDy=0;endArrow=none;endFill=0;" parent="1" source="A3I4oWgsdDmlfEpYmycM-44" target="A3I4oWgsdDmlfEpYmycM-38" edge="1">
          <mxGeometry relative="1" as="geometry" />
        </mxCell>
        <mxCell id="A3I4oWgsdDmlfEpYmycM-43" style="edgeStyle=orthogonalEdgeStyle;rounded=0;orthogonalLoop=1;jettySize=auto;html=1;exitX=1;exitY=0.5;exitDx=0;exitDy=0;endArrow=none;endFill=0;" parent="1" source="A3I4oWgsdDmlfEpYmycM-44" edge="1">
          <mxGeometry relative="1" as="geometry">
            <mxPoint x="300.0000000000002" y="320.1111111111111" as="targetPoint" />
          </mxGeometry>
        </mxCell>
        <mxCell id="A3I4oWgsdDmlfEpYmycM-44" value="&lt;font style=&quot;font-size: 10px;&quot;&gt;LIF Neuron&lt;/font&gt;" style="whiteSpace=wrap;html=1;aspect=fixed;fillColor=#eeeeee;strokeColor=#36393d;" parent="1" vertex="1">
          <mxGeometry x="180" y="280" width="80" height="80" as="geometry" />
        </mxCell>
        <mxCell id="A3I4oWgsdDmlfEpYmycM-45" style="edgeStyle=orthogonalEdgeStyle;rounded=0;orthogonalLoop=1;jettySize=auto;html=1;exitX=1;exitY=0.5;exitDx=0;exitDy=0;entryX=0;entryY=0.5;entryDx=0;entryDy=0;endArrow=none;endFill=0;" parent="1" source="A3I4oWgsdDmlfEpYmycM-46" target="A3I4oWgsdDmlfEpYmycM-38" edge="1">
          <mxGeometry relative="1" as="geometry" />
        </mxCell>
        <mxCell id="A3I4oWgsdDmlfEpYmycM-46" value="&lt;font style=&quot;font-size: 10px;&quot;&gt;LIF Neuron&lt;/font&gt;" style="whiteSpace=wrap;html=1;aspect=fixed;fillColor=#eeeeee;strokeColor=#36393d;" parent="1" vertex="1">
          <mxGeometry x="80" y="380" width="80" height="80" as="geometry" />
        </mxCell>
        <mxCell id="A3I4oWgsdDmlfEpYmycM-51" value="" style="endArrow=none;html=1;rounded=0;exitX=1;exitY=0.5;exitDx=0;exitDy=0;edgeStyle=orthogonalEdgeStyle;" parent="1" source="A3I4oWgsdDmlfEpYmycM-38" edge="1">
          <mxGeometry width="50" height="50" relative="1" as="geometry">
            <mxPoint x="300" y="410" as="sourcePoint" />
            <mxPoint x="300" y="420" as="targetPoint" />
            <Array as="points">
              <mxPoint x="300" y="420" />
              <mxPoint x="300" y="420" />
            </Array>
          </mxGeometry>
        </mxCell>
        <mxCell id="A3I4oWgsdDmlfEpYmycM-52" value="" style="endArrow=none;html=1;rounded=0;edgeStyle=orthogonalEdgeStyle;" parent="1" edge="1">
          <mxGeometry width="50" height="50" relative="1" as="geometry">
            <mxPoint x="120" y="500" as="sourcePoint" />
            <mxPoint x="119.99000000000001" y="460" as="targetPoint" />
          </mxGeometry>
        </mxCell>
        <mxCell id="A3I4oWgsdDmlfEpYmycM-128" style="edgeStyle=orthogonalEdgeStyle;rounded=0;orthogonalLoop=1;jettySize=auto;html=1;exitX=0.5;exitY=1;exitDx=0;exitDy=0;shape=link;" parent="1" source="A3I4oWgsdDmlfEpYmycM-67" target="A3I4oWgsdDmlfEpYmycM-107" edge="1">
          <mxGeometry relative="1" as="geometry" />
        </mxCell>
        <mxCell id="A3I4oWgsdDmlfEpYmycM-67" value="&lt;div&gt;Neuron Manager&lt;/div&gt;" style="whiteSpace=wrap;html=1;aspect=fixed;align=center;labelPosition=center;verticalLabelPosition=middle;verticalAlign=middle;" parent="1" vertex="1">
          <mxGeometry x="320" y="260" width="220" height="220" as="geometry" />
        </mxCell>
        <mxCell id="A3I4oWgsdDmlfEpYmycM-68" value="" style="whiteSpace=wrap;html=1;aspect=fixed;" parent="1" vertex="1">
          <mxGeometry x="340" y="280" width="80" height="80" as="geometry" />
        </mxCell>
        <mxCell id="A3I4oWgsdDmlfEpYmycM-69" value="" style="whiteSpace=wrap;html=1;aspect=fixed;" parent="1" vertex="1">
          <mxGeometry x="440" y="280" width="80" height="80" as="geometry" />
        </mxCell>
        <mxCell id="A3I4oWgsdDmlfEpYmycM-70" value="" style="whiteSpace=wrap;html=1;aspect=fixed;" parent="1" vertex="1">
          <mxGeometry x="340" y="380" width="80" height="80" as="geometry" />
        </mxCell>
        <mxCell id="A3I4oWgsdDmlfEpYmycM-71" style="edgeStyle=orthogonalEdgeStyle;rounded=0;orthogonalLoop=1;jettySize=auto;html=1;exitX=0.5;exitY=1;exitDx=0;exitDy=0;endArrow=none;endFill=0;" parent="1" source="A3I4oWgsdDmlfEpYmycM-72" edge="1">
          <mxGeometry relative="1" as="geometry">
            <mxPoint x="479.8888888888889" y="500" as="targetPoint" />
          </mxGeometry>
        </mxCell>
        <mxCell id="A3I4oWgsdDmlfEpYmycM-72" value="&lt;font style=&quot;font-size: 10px;&quot;&gt;LIF Neuron&lt;/font&gt;" style="whiteSpace=wrap;html=1;aspect=fixed;fillColor=#eeeeee;strokeColor=#36393d;" parent="1" vertex="1">
          <mxGeometry x="440" y="380" width="80" height="80" as="geometry" />
        </mxCell>
        <mxCell id="A3I4oWgsdDmlfEpYmycM-73" style="edgeStyle=orthogonalEdgeStyle;rounded=0;orthogonalLoop=1;jettySize=auto;html=1;exitX=1;exitY=0.5;exitDx=0;exitDy=0;entryX=0;entryY=0.5;entryDx=0;entryDy=0;endArrow=none;endFill=0;" parent="1" source="A3I4oWgsdDmlfEpYmycM-75" target="A3I4oWgsdDmlfEpYmycM-78" edge="1">
          <mxGeometry relative="1" as="geometry" />
        </mxCell>
        <mxCell id="A3I4oWgsdDmlfEpYmycM-74" style="edgeStyle=orthogonalEdgeStyle;rounded=0;orthogonalLoop=1;jettySize=auto;html=1;exitX=0.5;exitY=1;exitDx=0;exitDy=0;entryX=0.5;entryY=0;entryDx=0;entryDy=0;endArrow=none;endFill=0;" parent="1" source="A3I4oWgsdDmlfEpYmycM-75" target="A3I4oWgsdDmlfEpYmycM-80" edge="1">
          <mxGeometry relative="1" as="geometry" />
        </mxCell>
        <mxCell id="A3I4oWgsdDmlfEpYmycM-75" value="&lt;font style=&quot;font-size: 10px;&quot;&gt;LIF Neuron&lt;/font&gt;" style="whiteSpace=wrap;html=1;aspect=fixed;fillColor=#eeeeee;strokeColor=#36393d;" parent="1" vertex="1">
          <mxGeometry x="340" y="280" width="80" height="80" as="geometry" />
        </mxCell>
        <mxCell id="A3I4oWgsdDmlfEpYmycM-76" style="edgeStyle=orthogonalEdgeStyle;rounded=0;orthogonalLoop=1;jettySize=auto;html=1;exitX=0.5;exitY=1;exitDx=0;exitDy=0;entryX=0.5;entryY=0;entryDx=0;entryDy=0;endArrow=none;endFill=0;" parent="1" source="A3I4oWgsdDmlfEpYmycM-78" target="A3I4oWgsdDmlfEpYmycM-72" edge="1">
          <mxGeometry relative="1" as="geometry" />
        </mxCell>
        <mxCell id="A3I4oWgsdDmlfEpYmycM-78" value="&lt;font style=&quot;font-size: 10px;&quot;&gt;LIF Neuron&lt;/font&gt;" style="whiteSpace=wrap;html=1;aspect=fixed;fillColor=#eeeeee;strokeColor=#36393d;" parent="1" vertex="1">
          <mxGeometry x="440" y="280" width="80" height="80" as="geometry" />
        </mxCell>
        <mxCell id="A3I4oWgsdDmlfEpYmycM-79" style="edgeStyle=orthogonalEdgeStyle;rounded=0;orthogonalLoop=1;jettySize=auto;html=1;exitX=1;exitY=0.5;exitDx=0;exitDy=0;entryX=0;entryY=0.5;entryDx=0;entryDy=0;endArrow=none;endFill=0;" parent="1" source="A3I4oWgsdDmlfEpYmycM-80" target="A3I4oWgsdDmlfEpYmycM-72" edge="1">
          <mxGeometry relative="1" as="geometry" />
        </mxCell>
        <mxCell id="A3I4oWgsdDmlfEpYmycM-80" value="&lt;font style=&quot;font-size: 10px;&quot;&gt;LIF Neuron&lt;/font&gt;" style="whiteSpace=wrap;html=1;aspect=fixed;fillColor=#eeeeee;strokeColor=#36393d;" parent="1" vertex="1">
          <mxGeometry x="340" y="380" width="80" height="80" as="geometry" />
        </mxCell>
        <mxCell id="A3I4oWgsdDmlfEpYmycM-83" value="" style="endArrow=none;html=1;rounded=0;entryX=0;entryY=0.5;entryDx=0;entryDy=0;edgeStyle=orthogonalEdgeStyle;" parent="1" target="A3I4oWgsdDmlfEpYmycM-75" edge="1">
          <mxGeometry width="50" height="50" relative="1" as="geometry">
            <mxPoint x="300" y="320" as="sourcePoint" />
            <mxPoint x="260" y="310" as="targetPoint" />
            <Array as="points">
              <mxPoint x="306" y="320" />
              <mxPoint x="306" y="320" />
            </Array>
          </mxGeometry>
        </mxCell>
        <mxCell id="A3I4oWgsdDmlfEpYmycM-84" value="" style="endArrow=none;html=1;rounded=0;entryX=0;entryY=0.5;entryDx=0;entryDy=0;edgeStyle=orthogonalEdgeStyle;" parent="1" target="A3I4oWgsdDmlfEpYmycM-80" edge="1">
          <mxGeometry width="50" height="50" relative="1" as="geometry">
            <mxPoint x="300" y="420" as="sourcePoint" />
            <mxPoint x="270" y="410" as="targetPoint" />
            <Array as="points">
              <mxPoint x="310" y="420" />
              <mxPoint x="310" y="420" />
            </Array>
          </mxGeometry>
        </mxCell>
        <mxCell id="A3I4oWgsdDmlfEpYmycM-86" value="" style="endArrow=none;html=1;rounded=0;edgeStyle=orthogonalEdgeStyle;" parent="1" edge="1">
          <mxGeometry width="50" height="50" relative="1" as="geometry">
            <mxPoint x="380" y="500" as="sourcePoint" />
            <mxPoint x="379.99" y="460" as="targetPoint" />
          </mxGeometry>
        </mxCell>
        <mxCell id="A3I4oWgsdDmlfEpYmycM-129" style="edgeStyle=orthogonalEdgeStyle;rounded=0;orthogonalLoop=1;jettySize=auto;html=1;exitX=1;exitY=0.5;exitDx=0;exitDy=0;entryX=0;entryY=0.5;entryDx=0;entryDy=0;shape=link;" parent="1" source="A3I4oWgsdDmlfEpYmycM-87" target="A3I4oWgsdDmlfEpYmycM-107" edge="1">
          <mxGeometry relative="1" as="geometry" />
        </mxCell>
        <mxCell id="A3I4oWgsdDmlfEpYmycM-130" style="edgeStyle=orthogonalEdgeStyle;rounded=0;orthogonalLoop=1;jettySize=auto;html=1;exitX=0.5;exitY=0;exitDx=0;exitDy=0;entryX=0.5;entryY=1;entryDx=0;entryDy=0;shape=link;" parent="1" source="A3I4oWgsdDmlfEpYmycM-87" target="A3I4oWgsdDmlfEpYmycM-33" edge="1">
          <mxGeometry relative="1" as="geometry" />
        </mxCell>
        <mxCell id="A3I4oWgsdDmlfEpYmycM-87" value="&lt;div&gt;Neuron Manager&lt;/div&gt;" style="whiteSpace=wrap;html=1;aspect=fixed;align=center;labelPosition=center;verticalLabelPosition=middle;verticalAlign=middle;" parent="1" vertex="1">
          <mxGeometry x="60" y="520" width="220" height="220" as="geometry" />
        </mxCell>
        <mxCell id="A3I4oWgsdDmlfEpYmycM-88" value="" style="whiteSpace=wrap;html=1;aspect=fixed;" parent="1" vertex="1">
          <mxGeometry x="80" y="540" width="80" height="80" as="geometry" />
        </mxCell>
        <mxCell id="A3I4oWgsdDmlfEpYmycM-89" value="" style="whiteSpace=wrap;html=1;aspect=fixed;" parent="1" vertex="1">
          <mxGeometry x="180" y="540" width="80" height="80" as="geometry" />
        </mxCell>
        <mxCell id="A3I4oWgsdDmlfEpYmycM-90" value="" style="whiteSpace=wrap;html=1;aspect=fixed;" parent="1" vertex="1">
          <mxGeometry x="80" y="640" width="80" height="80" as="geometry" />
        </mxCell>
        <mxCell id="A3I4oWgsdDmlfEpYmycM-92" value="&lt;font style=&quot;font-size: 10px;&quot;&gt;LIF Neuron&lt;/font&gt;" style="whiteSpace=wrap;html=1;aspect=fixed;fillColor=#eeeeee;strokeColor=#36393d;" parent="1" vertex="1">
          <mxGeometry x="180" y="640" width="80" height="80" as="geometry" />
        </mxCell>
        <mxCell id="A3I4oWgsdDmlfEpYmycM-93" style="edgeStyle=orthogonalEdgeStyle;rounded=0;orthogonalLoop=1;jettySize=auto;html=1;exitX=1;exitY=0.5;exitDx=0;exitDy=0;entryX=0;entryY=0.5;entryDx=0;entryDy=0;endArrow=none;endFill=0;" parent="1" source="A3I4oWgsdDmlfEpYmycM-95" target="A3I4oWgsdDmlfEpYmycM-98" edge="1">
          <mxGeometry relative="1" as="geometry" />
        </mxCell>
        <mxCell id="A3I4oWgsdDmlfEpYmycM-94" style="edgeStyle=orthogonalEdgeStyle;rounded=0;orthogonalLoop=1;jettySize=auto;html=1;exitX=0.5;exitY=1;exitDx=0;exitDy=0;entryX=0.5;entryY=0;entryDx=0;entryDy=0;endArrow=none;endFill=0;" parent="1" source="A3I4oWgsdDmlfEpYmycM-95" target="A3I4oWgsdDmlfEpYmycM-100" edge="1">
          <mxGeometry relative="1" as="geometry" />
        </mxCell>
        <mxCell id="A3I4oWgsdDmlfEpYmycM-95" value="&lt;font style=&quot;font-size: 10px;&quot;&gt;LIF Neuron&lt;/font&gt;" style="whiteSpace=wrap;html=1;aspect=fixed;fillColor=#eeeeee;strokeColor=#36393d;" parent="1" vertex="1">
          <mxGeometry x="80" y="540" width="80" height="80" as="geometry" />
        </mxCell>
        <mxCell id="A3I4oWgsdDmlfEpYmycM-96" style="edgeStyle=orthogonalEdgeStyle;rounded=0;orthogonalLoop=1;jettySize=auto;html=1;exitX=0.5;exitY=1;exitDx=0;exitDy=0;entryX=0.5;entryY=0;entryDx=0;entryDy=0;endArrow=none;endFill=0;" parent="1" source="A3I4oWgsdDmlfEpYmycM-98" target="A3I4oWgsdDmlfEpYmycM-92" edge="1">
          <mxGeometry relative="1" as="geometry" />
        </mxCell>
        <mxCell id="A3I4oWgsdDmlfEpYmycM-97" style="edgeStyle=orthogonalEdgeStyle;rounded=0;orthogonalLoop=1;jettySize=auto;html=1;exitX=1;exitY=0.5;exitDx=0;exitDy=0;endArrow=none;endFill=0;" parent="1" source="A3I4oWgsdDmlfEpYmycM-98" edge="1">
          <mxGeometry relative="1" as="geometry">
            <mxPoint x="300.0000000000002" y="580.1111111111111" as="targetPoint" />
          </mxGeometry>
        </mxCell>
        <mxCell id="A3I4oWgsdDmlfEpYmycM-98" value="&lt;font style=&quot;font-size: 10px;&quot;&gt;LIF Neuron&lt;/font&gt;" style="whiteSpace=wrap;html=1;aspect=fixed;fillColor=#eeeeee;strokeColor=#36393d;" parent="1" vertex="1">
          <mxGeometry x="180" y="540" width="80" height="80" as="geometry" />
        </mxCell>
        <mxCell id="A3I4oWgsdDmlfEpYmycM-99" style="edgeStyle=orthogonalEdgeStyle;rounded=0;orthogonalLoop=1;jettySize=auto;html=1;exitX=1;exitY=0.5;exitDx=0;exitDy=0;entryX=0;entryY=0.5;entryDx=0;entryDy=0;endArrow=none;endFill=0;" parent="1" source="A3I4oWgsdDmlfEpYmycM-100" target="A3I4oWgsdDmlfEpYmycM-92" edge="1">
          <mxGeometry relative="1" as="geometry" />
        </mxCell>
        <mxCell id="A3I4oWgsdDmlfEpYmycM-100" value="&lt;font style=&quot;font-size: 10px;&quot;&gt;LIF Neuron&lt;/font&gt;" style="whiteSpace=wrap;html=1;aspect=fixed;fillColor=#eeeeee;strokeColor=#36393d;" parent="1" vertex="1">
          <mxGeometry x="80" y="640" width="80" height="80" as="geometry" />
        </mxCell>
        <mxCell id="A3I4oWgsdDmlfEpYmycM-101" value="" style="endArrow=none;html=1;rounded=0;exitX=0.5;exitY=0;exitDx=0;exitDy=0;edgeStyle=orthogonalEdgeStyle;" parent="1" source="A3I4oWgsdDmlfEpYmycM-95" edge="1">
          <mxGeometry width="50" height="50" relative="1" as="geometry">
            <mxPoint x="110" y="490" as="sourcePoint" />
            <mxPoint x="120" y="500" as="targetPoint" />
          </mxGeometry>
        </mxCell>
        <mxCell id="A3I4oWgsdDmlfEpYmycM-102" value="" style="endArrow=none;html=1;rounded=0;exitX=0.5;exitY=0;exitDx=0;exitDy=0;edgeStyle=orthogonalEdgeStyle;" parent="1" source="A3I4oWgsdDmlfEpYmycM-98" edge="1">
          <mxGeometry width="50" height="50" relative="1" as="geometry">
            <mxPoint x="219.75" y="540" as="sourcePoint" />
            <mxPoint x="220" y="500" as="targetPoint" />
            <Array as="points">
              <mxPoint x="220" y="510" />
              <mxPoint x="220" y="510" />
            </Array>
          </mxGeometry>
        </mxCell>
        <mxCell id="A3I4oWgsdDmlfEpYmycM-105" value="" style="endArrow=none;html=1;rounded=0;exitX=1;exitY=0.5;exitDx=0;exitDy=0;edgeStyle=orthogonalEdgeStyle;" parent="1" source="A3I4oWgsdDmlfEpYmycM-92" edge="1">
          <mxGeometry width="50" height="50" relative="1" as="geometry">
            <mxPoint x="300" y="670" as="sourcePoint" />
            <mxPoint x="300" y="680" as="targetPoint" />
            <Array as="points">
              <mxPoint x="300" y="680" />
              <mxPoint x="300" y="680" />
            </Array>
          </mxGeometry>
        </mxCell>
        <mxCell id="A3I4oWgsdDmlfEpYmycM-107" value="&lt;div&gt;Neuron Manager&lt;/div&gt;" style="whiteSpace=wrap;html=1;aspect=fixed;align=center;labelPosition=center;verticalLabelPosition=middle;verticalAlign=middle;" parent="1" vertex="1">
          <mxGeometry x="320" y="520" width="220" height="220" as="geometry" />
        </mxCell>
        <mxCell id="A3I4oWgsdDmlfEpYmycM-108" value="" style="whiteSpace=wrap;html=1;aspect=fixed;" parent="1" vertex="1">
          <mxGeometry x="340" y="540" width="80" height="80" as="geometry" />
        </mxCell>
        <mxCell id="A3I4oWgsdDmlfEpYmycM-109" value="" style="whiteSpace=wrap;html=1;aspect=fixed;" parent="1" vertex="1">
          <mxGeometry x="440" y="540" width="80" height="80" as="geometry" />
        </mxCell>
        <mxCell id="A3I4oWgsdDmlfEpYmycM-110" value="" style="whiteSpace=wrap;html=1;aspect=fixed;" parent="1" vertex="1">
          <mxGeometry x="340" y="640" width="80" height="80" as="geometry" />
        </mxCell>
        <mxCell id="A3I4oWgsdDmlfEpYmycM-112" value="&lt;font style=&quot;font-size: 10px;&quot;&gt;LIF Neuron&lt;/font&gt;" style="whiteSpace=wrap;html=1;aspect=fixed;fillColor=#eeeeee;strokeColor=#36393d;" parent="1" vertex="1">
          <mxGeometry x="440" y="640" width="80" height="80" as="geometry" />
        </mxCell>
        <mxCell id="A3I4oWgsdDmlfEpYmycM-113" style="edgeStyle=orthogonalEdgeStyle;rounded=0;orthogonalLoop=1;jettySize=auto;html=1;exitX=1;exitY=0.5;exitDx=0;exitDy=0;entryX=0;entryY=0.5;entryDx=0;entryDy=0;endArrow=none;endFill=0;" parent="1" source="A3I4oWgsdDmlfEpYmycM-115" target="A3I4oWgsdDmlfEpYmycM-118" edge="1">
          <mxGeometry relative="1" as="geometry" />
        </mxCell>
        <mxCell id="A3I4oWgsdDmlfEpYmycM-114" style="edgeStyle=orthogonalEdgeStyle;rounded=0;orthogonalLoop=1;jettySize=auto;html=1;exitX=0.5;exitY=1;exitDx=0;exitDy=0;entryX=0.5;entryY=0;entryDx=0;entryDy=0;endArrow=none;endFill=0;" parent="1" source="A3I4oWgsdDmlfEpYmycM-115" target="A3I4oWgsdDmlfEpYmycM-120" edge="1">
          <mxGeometry relative="1" as="geometry" />
        </mxCell>
        <mxCell id="A3I4oWgsdDmlfEpYmycM-115" value="&lt;font style=&quot;font-size: 10px;&quot;&gt;LIF Neuron&lt;/font&gt;" style="whiteSpace=wrap;html=1;aspect=fixed;fillColor=#eeeeee;strokeColor=#36393d;" parent="1" vertex="1">
          <mxGeometry x="340" y="540" width="80" height="80" as="geometry" />
        </mxCell>
        <mxCell id="A3I4oWgsdDmlfEpYmycM-116" style="edgeStyle=orthogonalEdgeStyle;rounded=0;orthogonalLoop=1;jettySize=auto;html=1;exitX=0.5;exitY=1;exitDx=0;exitDy=0;entryX=0.5;entryY=0;entryDx=0;entryDy=0;endArrow=none;endFill=0;" parent="1" source="A3I4oWgsdDmlfEpYmycM-118" target="A3I4oWgsdDmlfEpYmycM-112" edge="1">
          <mxGeometry relative="1" as="geometry" />
        </mxCell>
        <mxCell id="A3I4oWgsdDmlfEpYmycM-118" value="&lt;font style=&quot;font-size: 10px;&quot;&gt;LIF Neuron&lt;/font&gt;" style="whiteSpace=wrap;html=1;aspect=fixed;fillColor=#eeeeee;strokeColor=#36393d;" parent="1" vertex="1">
          <mxGeometry x="440" y="540" width="80" height="80" as="geometry" />
        </mxCell>
        <mxCell id="A3I4oWgsdDmlfEpYmycM-119" style="edgeStyle=orthogonalEdgeStyle;rounded=0;orthogonalLoop=1;jettySize=auto;html=1;exitX=1;exitY=0.5;exitDx=0;exitDy=0;entryX=0;entryY=0.5;entryDx=0;entryDy=0;endArrow=none;endFill=0;" parent="1" source="A3I4oWgsdDmlfEpYmycM-120" target="A3I4oWgsdDmlfEpYmycM-112" edge="1">
          <mxGeometry relative="1" as="geometry" />
        </mxCell>
        <mxCell id="A3I4oWgsdDmlfEpYmycM-120" value="&lt;font style=&quot;font-size: 10px;&quot;&gt;LIF Neuron&lt;/font&gt;" style="whiteSpace=wrap;html=1;aspect=fixed;fillColor=#eeeeee;strokeColor=#36393d;" parent="1" vertex="1">
          <mxGeometry x="340" y="640" width="80" height="80" as="geometry" />
        </mxCell>
        <mxCell id="A3I4oWgsdDmlfEpYmycM-121" value="" style="endArrow=none;html=1;rounded=0;exitX=0.5;exitY=0;exitDx=0;exitDy=0;edgeStyle=orthogonalEdgeStyle;" parent="1" source="A3I4oWgsdDmlfEpYmycM-115" edge="1">
          <mxGeometry width="50" height="50" relative="1" as="geometry">
            <mxPoint x="370" y="490" as="sourcePoint" />
            <mxPoint x="380" y="500" as="targetPoint" />
          </mxGeometry>
        </mxCell>
        <mxCell id="A3I4oWgsdDmlfEpYmycM-122" value="" style="endArrow=none;html=1;rounded=0;exitX=0.5;exitY=0;exitDx=0;exitDy=0;edgeStyle=orthogonalEdgeStyle;" parent="1" source="A3I4oWgsdDmlfEpYmycM-118" edge="1">
          <mxGeometry width="50" height="50" relative="1" as="geometry">
            <mxPoint x="479.75" y="540" as="sourcePoint" />
            <mxPoint x="480" y="500" as="targetPoint" />
            <Array as="points">
              <mxPoint x="480" y="510" />
              <mxPoint x="480" y="510" />
            </Array>
          </mxGeometry>
        </mxCell>
        <mxCell id="A3I4oWgsdDmlfEpYmycM-123" value="" style="endArrow=none;html=1;rounded=0;entryX=0;entryY=0.5;entryDx=0;entryDy=0;edgeStyle=orthogonalEdgeStyle;" parent="1" target="A3I4oWgsdDmlfEpYmycM-115" edge="1">
          <mxGeometry width="50" height="50" relative="1" as="geometry">
            <mxPoint x="300" y="580" as="sourcePoint" />
            <mxPoint x="260" y="570" as="targetPoint" />
            <Array as="points">
              <mxPoint x="306" y="580" />
              <mxPoint x="306" y="580" />
            </Array>
          </mxGeometry>
        </mxCell>
        <mxCell id="A3I4oWgsdDmlfEpYmycM-124" value="" style="endArrow=none;html=1;rounded=0;entryX=0;entryY=0.5;entryDx=0;entryDy=0;edgeStyle=orthogonalEdgeStyle;" parent="1" target="A3I4oWgsdDmlfEpYmycM-120" edge="1">
          <mxGeometry width="50" height="50" relative="1" as="geometry">
            <mxPoint x="300" y="680" as="sourcePoint" />
            <mxPoint x="270" y="670" as="targetPoint" />
            <Array as="points">
              <mxPoint x="310" y="680" />
              <mxPoint x="310" y="680" />
            </Array>
          </mxGeometry>
        </mxCell>
        <mxCell id="A3I4oWgsdDmlfEpYmycM-131" value="Control Logic and Parameter Initialization" style="rounded=0;whiteSpace=wrap;html=1;" parent="1" vertex="1">
          <mxGeometry x="560" y="260" width="130" height="480" as="geometry" />
        </mxCell>
        <mxCell id="A3I4oWgsdDmlfEpYmycM-132" style="edgeStyle=orthogonalEdgeStyle;rounded=0;orthogonalLoop=1;jettySize=auto;html=1;exitX=1;exitY=0.5;exitDx=0;exitDy=0;entryX=0.002;entryY=0.228;entryDx=0;entryDy=0;entryPerimeter=0;shape=link;" parent="1" source="A3I4oWgsdDmlfEpYmycM-67" target="A3I4oWgsdDmlfEpYmycM-131" edge="1">
          <mxGeometry relative="1" as="geometry" />
        </mxCell>
        <mxCell id="A3I4oWgsdDmlfEpYmycM-133" style="edgeStyle=orthogonalEdgeStyle;rounded=0;orthogonalLoop=1;jettySize=auto;html=1;exitX=1;exitY=0.5;exitDx=0;exitDy=0;entryX=0.003;entryY=0.772;entryDx=0;entryDy=0;entryPerimeter=0;shape=link;" parent="1" source="A3I4oWgsdDmlfEpYmycM-107" target="A3I4oWgsdDmlfEpYmycM-131" edge="1">
          <mxGeometry relative="1" as="geometry" />
        </mxCell>
      </root>
    </mxGraphModel>
  </diagram>
</mxfile>
